<svg xmlns="http://www.w3.org/2000/svg" width="18.469" height="18.461" viewBox="0 0 18.469 18.461"><g transform="translate(9.234 9.231)"><g transform="translate(-9.234 -9.231)"><path d="M9.231,1.664c2.466,0,2.756.011,3.73.055a5.038,5.038,0,0,1,1.715.319,2.862,2.862,0,0,1,1.063.689,2.862,2.862,0,0,1,.689,1.063A5.132,5.132,0,0,1,16.747,5.5c.044.975.055,1.264.055,3.73s-.011,2.756-.055,3.73a5.038,5.038,0,0,1-.319,1.715,3.056,3.056,0,0,1-1.752,1.752,5.132,5.132,0,0,1-1.715.319c-.975.044-1.264.055-3.73.055s-2.756-.011-3.73-.055a5.038,5.038,0,0,1-1.715-.319,2.862,2.862,0,0,1-1.063-.689,2.862,2.862,0,0,1-.689-1.063,5.132,5.132,0,0,1-.319-1.715c-.044-.975-.055-1.264-.055-3.73s.011-2.756.055-3.73a5.038,5.038,0,0,1,.319-1.715,2.862,2.862,0,0,1,.689-1.063,2.862,2.862,0,0,1,1.063-.689A5.132,5.132,0,0,1,5.5,1.719c.975-.044,1.264-.055,3.73-.055M9.231,0C6.724,0,6.409.011,5.423.055A6.746,6.746,0,0,0,3.184.484,4.526,4.526,0,0,0,1.55,1.55,4.526,4.526,0,0,0,.484,3.184,6.771,6.771,0,0,0,.055,5.427C.011,6.413,0,6.724,0,9.231s.011,2.822.055,3.807a6.746,6.746,0,0,0,.429,2.239A4.526,4.526,0,0,0,1.55,16.911a4.526,4.526,0,0,0,1.634,1.066,6.771,6.771,0,0,0,2.243.429c.986.044,1.3.055,3.807.055s2.822-.011,3.807-.055a6.791,6.791,0,0,0,2.243-.429,4.72,4.72,0,0,0,2.7-2.7,6.771,6.771,0,0,0,.429-2.243c.044-.986.055-1.3.055-3.807s-.011-2.822-.055-3.807a6.79,6.79,0,0,0-.429-2.243,4.526,4.526,0,0,0-1.066-1.634A4.526,4.526,0,0,0,15.284.476,7.075,7.075,0,0,0,13.038.055C12.056.011,11.737,0,9.231,0Z" transform="translate(0 0)" fill="#fff"/><path d="M127.242,122.6a4.742,4.742,0,1,0,4.742,4.738A4.742,4.742,0,0,0,127.242,122.6Zm0,7.816a3.078,3.078,0,1,1,3.078-3.078A3.078,3.078,0,0,1,127.242,130.416Z" transform="translate(-118.011 -118.107)" fill="#fff"/><ellipse cx="1.107" cy="1.107" rx="1.107" ry="1.107" transform="translate(13.053 3.195)" fill="#fff"/></g></g></svg>